<svg width="60" height="60" viewBox="0 0 60 60" fill="none" xmlns="http://www.w3.org/2000/svg">
<g filter="url(#filter0_d_304_563)">
<circle cx="29.7619" cy="26.3095" r="26.3095" fill="#F2FFF5"/>
</g>
<path d="M49.5952 26.7649C49.5952 15.5655 40.5285 6.47607 29.3571 6.47607C18.1857 6.47607 9.11902 15.5655 9.11902 26.7649C9.11902 36.5847 16.0809 44.7611 25.3095 46.6479V32.8515H21.2619V26.7649H25.3095V21.6927C25.3095 17.7769 28.4869 14.5916 32.3928 14.5916H37.4524V20.6782H33.4047C32.2916 20.6782 31.3809 21.5912 31.3809 22.7071V26.7649H37.4524V32.8515H31.3809V46.9523C41.6012 45.9378 49.5952 37.2948 49.5952 26.7649Z" fill="#32794F"/>
<defs>
<filter id="filter0_d_304_563" x="0.214297" y="0" width="59.0952" height="59.0953" filterUnits="userSpaceOnUse" color-interpolation-filters="sRGB">
<feFlood flood-opacity="0" result="BackgroundImageFix"/>
<feColorMatrix in="SourceAlpha" type="matrix" values="0 0 0 0 0 0 0 0 0 0 0 0 0 0 0 0 0 0 127 0" result="hardAlpha"/>
<feOffset dy="3.2381"/>
<feGaussianBlur stdDeviation="1.61905"/>
<feComposite in2="hardAlpha" operator="out"/>
<feColorMatrix type="matrix" values="0 0 0 0 0 0 0 0 0 0 0 0 0 0 0 0 0 0 0.25 0"/>
<feBlend mode="normal" in2="BackgroundImageFix" result="effect1_dropShadow_304_563"/>
<feBlend mode="normal" in="SourceGraphic" in2="effect1_dropShadow_304_563" result="shape"/>
</filter>
</defs>
</svg>
