<svg width="60" height="60" viewBox="0 0 60 60" fill="none" xmlns="http://www.w3.org/2000/svg">
<g filter="url(#filter0_d_304_566)">
<circle cx="29.8571" cy="26.3095" r="26.3095" fill="#F2FFF5"/>
</g>
<path d="M21.7619 8.09521C16.1741 8.09521 11.6428 12.6265 11.6428 18.2143V34.4047C11.6428 39.9925 16.1741 44.5238 21.7619 44.5238H37.9523C43.5401 44.5238 48.0714 39.9925 48.0714 34.4047V18.2143C48.0714 12.6265 43.5401 8.09521 37.9523 8.09521H21.7619ZM42 12.1428C43.1171 12.1428 44.0238 13.0495 44.0238 14.1666C44.0238 15.2838 43.1171 16.1905 42 16.1905C40.8828 16.1905 39.9762 15.2838 39.9762 14.1666C39.9762 13.0495 40.8828 12.1428 42 12.1428ZM29.8571 16.1905C35.4448 16.1905 39.9762 20.7218 39.9762 26.3095C39.9762 31.8972 35.4448 36.4285 29.8571 36.4285C24.2694 36.4285 19.7381 31.8972 19.7381 26.3095C19.7381 20.7218 24.2694 16.1905 29.8571 16.1905ZM29.8571 20.2381C28.2469 20.2381 26.7026 20.8777 25.564 22.0164C24.4253 23.155 23.7857 24.6993 23.7857 26.3095C23.7857 27.9197 24.4253 29.464 25.564 30.6026C26.7026 31.7413 28.2469 32.3809 29.8571 32.3809C31.4674 32.3809 33.0116 31.7413 34.1503 30.6026C35.2889 29.464 35.9285 27.9197 35.9285 26.3095C35.9285 24.6993 35.2889 23.155 34.1503 22.0164C33.0116 20.8777 31.4674 20.2381 29.8571 20.2381Z" fill="#32794F"/>
<defs>
<filter id="filter0_d_304_566" x="0.309512" y="0" width="59.0952" height="59.0953" filterUnits="userSpaceOnUse" color-interpolation-filters="sRGB">
<feFlood flood-opacity="0" result="BackgroundImageFix"/>
<feColorMatrix in="SourceAlpha" type="matrix" values="0 0 0 0 0 0 0 0 0 0 0 0 0 0 0 0 0 0 127 0" result="hardAlpha"/>
<feOffset dy="3.2381"/>
<feGaussianBlur stdDeviation="1.61905"/>
<feComposite in2="hardAlpha" operator="out"/>
<feColorMatrix type="matrix" values="0 0 0 0 0 0 0 0 0 0 0 0 0 0 0 0 0 0 0.25 0"/>
<feBlend mode="normal" in2="BackgroundImageFix" result="effect1_dropShadow_304_566"/>
<feBlend mode="normal" in="SourceGraphic" in2="effect1_dropShadow_304_566" result="shape"/>
</filter>
</defs>
</svg>
