<svg width="60" height="60" viewBox="0 0 60 60" fill="none" xmlns="http://www.w3.org/2000/svg">
<g filter="url(#filter0_d_304_569)">
<circle cx="29.9524" cy="26.3095" r="26.3095" fill="#F2FFF5"/>
</g>
<path d="M48.9762 12.1431C47.4608 12.9629 44.4202 14.0802 42.6328 14.4025C42.5803 14.4149 42.5376 14.4308 42.4871 14.4432C40.9075 13.0231 38.7432 12.1431 36.3477 12.1431C31.5197 12.1431 27.6048 15.7111 27.6048 20.1113C27.6048 20.3433 27.5834 20.77 27.6048 20.9967C21.0904 20.9967 16.1322 17.8873 12.5768 13.9138C12.1902 14.7992 12.0211 16.198 12.0211 17.5119C12.0211 19.9927 14.1486 22.4292 17.4611 23.9396C16.8511 24.083 16.1789 24.1858 15.4794 24.1858C14.3506 24.1858 13.1558 23.9148 12.0619 23.0932C12.0619 23.1233 12.0619 23.1517 12.0619 23.1835C12.0619 26.6506 16.0992 29.011 19.6896 29.6679C18.961 30.0592 17.4922 30.0982 16.7753 30.0982C16.2702 30.0982 14.4827 29.8875 14.0048 29.806C15.0034 32.648 18.6055 34.2452 22.0385 34.3019C19.3535 36.2214 17.4903 36.9332 11.992 36.9332H10.1191C13.5929 38.9624 18.0168 40.4764 22.4504 40.4764C36.8858 40.4764 45.0905 30.4488 45.0905 20.9967C45.0905 20.8444 45.0866 20.5257 45.0808 20.2052C45.0808 20.1733 45.0905 20.1432 45.0905 20.1113C45.0905 20.0635 45.075 20.0175 45.075 19.9697C45.0691 19.7288 45.0633 19.504 45.0575 19.3871C46.5923 18.3778 47.9232 17.1188 48.9762 15.6845C47.5676 16.2547 46.0561 16.6372 44.4688 16.8107C46.0891 15.9253 48.3914 13.8146 48.9762 12.1431Z" fill="#32794F"/>
<defs>
<filter id="filter0_d_304_569" x="0.404788" y="0" width="59.0953" height="59.0953" filterUnits="userSpaceOnUse" color-interpolation-filters="sRGB">
<feFlood flood-opacity="0" result="BackgroundImageFix"/>
<feColorMatrix in="SourceAlpha" type="matrix" values="0 0 0 0 0 0 0 0 0 0 0 0 0 0 0 0 0 0 127 0" result="hardAlpha"/>
<feOffset dy="3.2381"/>
<feGaussianBlur stdDeviation="1.61905"/>
<feComposite in2="hardAlpha" operator="out"/>
<feColorMatrix type="matrix" values="0 0 0 0 0 0 0 0 0 0 0 0 0 0 0 0 0 0 0.25 0"/>
<feBlend mode="normal" in2="BackgroundImageFix" result="effect1_dropShadow_304_569"/>
<feBlend mode="normal" in="SourceGraphic" in2="effect1_dropShadow_304_569" result="shape"/>
</filter>
</defs>
</svg>
