<svg width="60" height="60" viewBox="0 0 60 60" fill="none" xmlns="http://www.w3.org/2000/svg">
<g filter="url(#filter0_d_304_572)">
<circle cx="30.0476" cy="26.3095" r="26.3095" fill="#F2FFF5"/>
</g>
<g clip-path="url(#clip0_304_572)">
<path d="M30.0476 7.7583C19.8016 7.7583 11.496 16.0638 11.496 26.3099C11.496 34.1702 16.3862 40.8822 23.2874 43.5851C23.126 42.1177 22.9776 39.8655 23.3524 38.2645C23.69 36.8175 25.5266 29.0425 25.5266 29.0425C25.5266 29.0425 24.9719 27.9313 24.9719 26.2895C24.9719 23.709 26.4672 21.7852 28.3279 21.7852C29.9103 21.7852 30.6747 22.9743 30.6747 24.3972C30.6747 25.9889 29.6617 28.3691 29.1386 30.573C28.7008 32.4208 30.0643 33.9253 31.8861 33.9253C35.1827 33.9253 37.7168 30.4487 37.7168 25.4305C37.7168 20.9893 34.526 17.8838 29.9678 17.8838C24.6899 17.8838 21.5918 21.8427 21.5918 25.9351C21.5918 27.5287 22.2059 29.2392 22.972 30.1686C23.1242 30.3523 23.1446 30.5137 23.1001 30.701C22.9591 31.2873 22.6474 32.5469 22.5862 32.8048C22.5064 33.1443 22.3172 33.2166 21.9665 33.0515C19.6495 31.9718 18.2006 28.5843 18.2006 25.8647C18.2006 20.0135 22.4526 14.6372 30.4595 14.6372C36.895 14.6372 41.8965 19.2232 41.8965 25.3526C41.8965 31.7474 37.8653 36.8917 32.2701 36.8917C30.3908 36.8917 28.6229 35.914 28.0181 34.762C28.0181 34.762 27.0868 38.3035 26.8623 39.1736C26.443 40.7838 25.3133 42.806 24.5564 44.0378C26.2909 44.5702 28.135 44.8615 30.0476 44.8615C40.2918 44.8615 48.5992 36.5541 48.5992 26.3099C48.5992 16.0657 40.2937 7.7583 30.0476 7.7583Z" fill="#32794F"/>
</g>
<defs>
<filter id="filter0_d_304_572" x="0.500003" y="0" width="59.0953" height="59.0953" filterUnits="userSpaceOnUse" color-interpolation-filters="sRGB">
<feFlood flood-opacity="0" result="BackgroundImageFix"/>
<feColorMatrix in="SourceAlpha" type="matrix" values="0 0 0 0 0 0 0 0 0 0 0 0 0 0 0 0 0 0 127 0" result="hardAlpha"/>
<feOffset dy="3.2381"/>
<feGaussianBlur stdDeviation="1.61905"/>
<feComposite in2="hardAlpha" operator="out"/>
<feColorMatrix type="matrix" values="0 0 0 0 0 0 0 0 0 0 0 0 0 0 0 0 0 0 0.25 0"/>
<feBlend mode="normal" in2="BackgroundImageFix" result="effect1_dropShadow_304_572"/>
<feBlend mode="normal" in="SourceGraphic" in2="effect1_dropShadow_304_572" result="shape"/>
</filter>
<clipPath id="clip0_304_572">
<rect width="44.5238" height="44.5238" fill="white" transform="translate(7.78571 4.04785)"/>
</clipPath>
</defs>
</svg>
