<svg width="60" height="60" viewBox="0 0 60 60" fill="none" xmlns="http://www.w3.org/2000/svg">
<g filter="url(#filter0_d_304_577)">
<circle cx="30.1429" cy="26.3095" r="26.3095" fill="#F2FFF5"/>
</g>
<path d="M47.5958 17.8893C47.1769 16.584 45.9419 15.5549 44.3755 15.2058C41.5341 14.5713 30.1429 14.5713 30.1429 14.5713C30.1429 14.5713 18.7517 14.5713 15.9102 15.2058C14.3438 15.5549 13.1089 16.584 12.6899 17.8893C11.9286 20.2572 11.9286 26.7141 11.9286 26.7141C11.9286 26.7141 11.9286 33.1711 12.6899 35.539C13.1089 36.8443 14.3438 37.8734 15.9102 38.2225C18.7517 38.857 30.1429 38.857 30.1429 38.857C30.1429 38.857 41.5341 38.857 44.3755 38.2225C45.9438 37.8734 47.1769 36.8443 47.5958 35.539C48.3572 33.1711 48.3572 26.7141 48.3572 26.7141C48.3572 26.7141 48.3572 20.2572 47.5958 17.8893ZM26.5 31.972V21.4563L37.4286 26.7141L26.5 31.972Z" fill="#32794F"/>
<defs>
<filter id="filter0_d_304_577" x="0.595279" y="0" width="59.0952" height="59.0953" filterUnits="userSpaceOnUse" color-interpolation-filters="sRGB">
<feFlood flood-opacity="0" result="BackgroundImageFix"/>
<feColorMatrix in="SourceAlpha" type="matrix" values="0 0 0 0 0 0 0 0 0 0 0 0 0 0 0 0 0 0 127 0" result="hardAlpha"/>
<feOffset dy="3.2381"/>
<feGaussianBlur stdDeviation="1.61905"/>
<feComposite in2="hardAlpha" operator="out"/>
<feColorMatrix type="matrix" values="0 0 0 0 0 0 0 0 0 0 0 0 0 0 0 0 0 0 0.25 0"/>
<feBlend mode="normal" in2="BackgroundImageFix" result="effect1_dropShadow_304_577"/>
<feBlend mode="normal" in="SourceGraphic" in2="effect1_dropShadow_304_577" result="shape"/>
</filter>
</defs>
</svg>
