<svg width="60" height="60" viewBox="0 0 60 60" fill="none" xmlns="http://www.w3.org/2000/svg">
<g filter="url(#filter0_d_304_580)">
<circle cx="30.2381" cy="26.3095" r="26.3095" fill="#F2FFF5"/>
</g>
<path fill-rule="evenodd" clip-rule="evenodd" d="M36.1629 26.0002L47.9272 16.3689C47.9757 16.5254 48.0003 16.6871 48 16.8495V35.1512C48.0003 35.3136 47.9757 35.4753 47.9272 35.6318L36.1629 26.0002ZM13.2037 36.8206C13.4841 36.9389 13.7913 37.0002 14.1024 37H45.8973C46.2612 37 46.6186 36.9163 46.9342 36.7568L34.9799 26.9691L32.8111 28.7441C32.0673 29.3396 31.0924 29.6618 30.0868 29.6446C29.0762 29.6419 28.1027 29.3082 27.3563 28.709L25.2335 26.9705L13.2037 36.8206ZM12.12 16.2319C12.0399 16.4302 11.9992 16.639 12 16.8493V35.1509C11.9992 35.3612 12.0399 35.57 12.12 35.7682L24.0507 26L12.12 16.2319ZM45.8956 15.0006L14.1021 15.0009C13.791 15.0006 13.4838 15.062 13.2034 15.1803L25.7777 25.4768L25.783 25.481L28.4548 27.6689C28.9049 28.0289 29.4908 28.2284 30.0991 28.2291C30.6931 28.2421 31.2704 28.0551 31.7127 27.706L34.4325 25.4807L34.4364 25.4773L46.9342 15.2429C46.6187 15.0837 46.2612 15 45.8974 15L45.8956 15.0006Z" fill="#32794F"/>
<defs>
<filter id="filter0_d_304_580" x="0.690494" y="0" width="59.0952" height="59.0953" filterUnits="userSpaceOnUse" color-interpolation-filters="sRGB">
<feFlood flood-opacity="0" result="BackgroundImageFix"/>
<feColorMatrix in="SourceAlpha" type="matrix" values="0 0 0 0 0 0 0 0 0 0 0 0 0 0 0 0 0 0 127 0" result="hardAlpha"/>
<feOffset dy="3.2381"/>
<feGaussianBlur stdDeviation="1.61905"/>
<feComposite in2="hardAlpha" operator="out"/>
<feColorMatrix type="matrix" values="0 0 0 0 0 0 0 0 0 0 0 0 0 0 0 0 0 0 0.25 0"/>
<feBlend mode="normal" in2="BackgroundImageFix" result="effect1_dropShadow_304_580"/>
<feBlend mode="normal" in="SourceGraphic" in2="effect1_dropShadow_304_580" result="shape"/>
</filter>
</defs>
</svg>
