<svg width="47" height="39" viewBox="0 0 47 39" fill="none" xmlns="http://www.w3.org/2000/svg">
<path d="M2.23279 29.458C4.40551 29.9346 6.15458 29.1439 8.56844 28.0183H8.56807C7.89605 26.0844 7.35409 24.1078 6.94503 22.1016C4.51556 23.7875 -2.37491 27.919 2.23289 29.4581L2.23279 29.458Z" fill="#32794F"/>
<path d="M9.27508 27.6628C18.0921 21.9506 29.8317 18.851 40.1193 21.9663C42.7373 9.67221 36.0931 4.74017 27.0295 6.99161C25.9455 8.023 26.4693 12.0442 24.1705 12.2904C21.4006 12.0705 21.8459 10.1648 22.1965 7.36346C19.8837 6.6055 17.8138 6.31051 16.0039 6.41757C18.256 12.8765 16.0039 16.3139 7.17919 17.44C7.16953 20.451 7.8495 23.9248 9.27499 27.6629L9.27508 27.6628Z" fill="url(#paint0_linear_304_354)"/>
<path d="M29.1398 28.3958C22.3334 28.443 16.7363 31.5846 12.1811 34.1135C15.3542 40.1715 20.234 39.0404 23.9198 37.3439C30.2028 40.4857 34.559 38.5952 38.0203 29.1866C35.0937 28.6311 32.1193 28.3663 29.1401 28.3958H29.1398Z" fill="url(#paint1_linear_304_354)"/>
<path d="M24.1704 11.5044C24.4739 11.5044 24.7255 11.4102 24.7934 11.1797C26.5527 3.20568 30.3646 2.3784 30.3646 2.3784L28.2705 0.252808C22.1912 2.59831 21.5842 12.2954 24.1704 11.5044Z" fill="#0A6835"/>
<path d="M40.3185 24.353C40.3185 24.5699 40.1425 24.7456 39.9259 24.7456C39.7089 24.7456 39.5329 24.5699 39.5329 24.353V22.6302C38.4858 22.3946 37.3809 22.1798 36.187 22.0071C36.0665 22.3683 36.5168 24.311 35.7944 24.2583C35.0614 24.3212 35.5223 22.2478 35.4018 21.8968C34.2078 21.7503 32.9358 21.6404 31.5899 21.5827C31.4748 21.9439 31.9251 23.9128 31.1973 23.8602C30.4748 23.9179 30.9252 21.9019 30.8046 21.5512V21.5516C29.7079 21.5239 28.6103 21.552 27.5165 21.6352C27.3543 21.9862 27.9146 25.5936 27.1239 25.4837C26.328 25.6042 26.8883 22.0384 26.7312 21.7086C25.6056 21.8292 24.4898 22.0249 23.3905 22.2952V24.1173C23.3905 24.3339 23.2149 24.5099 22.9979 24.5099C22.781 24.5099 22.6053 24.3339 22.6053 24.1173V22.4943C21.5914 22.7682 20.5918 23.0932 19.6104 23.468V25.7926C19.6104 26.0096 19.4344 26.1852 19.2178 26.1852C19.0009 26.1852 18.8248 26.0096 18.8248 25.7926V23.7298C17.678 24.1959 16.5838 24.6984 15.5367 25.2167V27.4369C15.5367 27.6538 15.361 27.8295 15.1441 27.8295C14.9271 27.8295 14.7514 27.6538 14.7514 27.4369V25.6355C13.631 26.2115 12.6101 26.7667 11.5627 27.3321V29.2064C11.5627 29.4234 11.387 29.599 11.1701 29.599C10.9531 29.599 10.7774 29.4234 10.7774 29.2064V27.751C9.85085 28.2485 8.9659 28.7039 8.11235 29.0966V32.6882C6.93409 34.568 7.40564 29.7248 7.32712 29.442C6.38661 29.8562 5.39796 30.1502 4.38444 30.3164C4.26939 30.6725 4.70913 32.5575 3.99182 32.5103C3.2851 32.5575 3.70913 30.7354 3.5992 30.3848H3.59883C2.56483 30.4443 1.53822 30.1751 0.666811 29.6148C-1.18166 47.1084 16.8982 26.1853 29.1137 27.6094C37.3972 27.4889 44.0053 29.735 47 31.2223V25.2431C46.0884 24.7895 45.1534 24.3838 44.1991 24.0284V25.3845C44.1991 25.6014 44.023 25.7771 43.8061 25.7771C43.5895 25.7771 43.4135 25.6014 43.4135 25.3845V23.73C42.4869 23.4108 41.4449 23.0913 40.2717 22.8035L40.3185 24.353Z" fill="#0A6835"/>
<defs>
<linearGradient id="paint0_linear_304_354" x1="23.9372" y1="6.39633" x2="23.8863" y2="37.1162" gradientUnits="userSpaceOnUse">
<stop stop-color="#DC2F39"/>
<stop offset="0.459913" stop-color="#DC2F39" stop-opacity="0.77"/>
<stop offset="1" stop-color="#DC2F39" stop-opacity="0"/>
</linearGradient>
<linearGradient id="paint1_linear_304_354" x1="25.1007" y1="28.3936" x2="25.1007" y2="38.747" gradientUnits="userSpaceOnUse">
<stop stop-color="#DC2F39" stop-opacity="0.76"/>
<stop offset="0.563969" stop-color="#DC2F39" stop-opacity="0.603917"/>
<stop offset="1" stop-color="#DC2F39" stop-opacity="0.3"/>
</linearGradient>
</defs>
</svg>
