<svg width="19" height="19" viewBox="0 0 19 19" fill="none" xmlns="http://www.w3.org/2000/svg">
<path d="M9.47002 0C6.72733 0 4.44165 2.26965 4.44165 5.05807C4.44165 7.84649 6.72726 10.0513 9.47002 10.0513C12.278 10.0513 14.5637 7.84652 14.5637 5.05807C14.5637 2.26962 12.278 0 9.47002 0Z" fill="#E0E0E0"/>
<path d="M1.63405 19H17.3718C18.4819 19 19.3308 17.8328 18.8738 16.7304C18.286 15.1092 17.1106 13.7474 15.674 12.7746C14.3026 11.802 12.6701 11.2831 10.8417 11.2831H8.16427C6.33578 11.2831 4.70314 11.8018 3.26676 12.7746C1.89539 13.7473 0.719974 15.1091 0.132198 16.7304C-0.324924 17.8328 0.458654 19 1.63422 19H1.63405Z" fill="#E0E0E0"/>
</svg>
