<svg width="65" height="53" viewBox="0 0 65 53" fill="none" xmlns="http://www.w3.org/2000/svg">
<path d="M2.59868 40.2105C5.59015 40.8667 7.99833 39.778 11.3218 38.2283H11.3213C10.396 35.5656 9.64984 32.8442 9.08664 30.082C5.74168 32.4032 -3.74533 38.0916 2.59882 40.2106L2.59868 40.2105Z" fill="#32794F"/>
<path d="M12.2948 37.7389C24.4343 29.8741 40.5977 25.6064 54.762 29.8958C58.3665 12.9688 49.2186 6.17824 36.7396 9.2781C35.2471 10.6981 35.9682 16.2346 32.8032 16.5736C28.9896 16.2709 29.6026 13.647 30.0853 9.79006C26.901 8.74649 24.0511 8.34034 21.5592 8.48774C24.66 17.3806 21.5592 22.1133 9.40908 23.6637C9.39577 27.8094 10.332 32.5922 12.2946 37.739L12.2948 37.7389Z" fill="url(#paint0_linear_304_541)"/>
<path d="M39.6451 38.7482C30.2738 38.8131 22.5675 43.1386 16.2957 46.6204C20.6646 54.9613 27.3832 53.4039 32.458 51.0682C41.1086 55.3938 47.1063 52.791 51.872 39.8369C47.8426 39.072 43.7474 38.7075 39.6454 38.7482H39.6451Z" fill="url(#paint1_linear_304_541)"/>
<path d="M32.803 15.4915C33.2209 15.4915 33.5674 15.3618 33.6609 15.0445C36.0831 4.0656 41.3315 2.92659 41.3315 2.92659L38.4482 0C30.078 3.22936 29.2423 16.5806 32.803 15.4915Z" fill="#0A6835"/>
<path d="M55.0362 33.1818C55.0362 33.4805 54.7939 33.7224 54.4957 33.7224C54.197 33.7224 53.9546 33.4805 53.9546 33.1818V30.8098C52.5129 30.4855 50.9917 30.1898 49.3479 29.9519C49.182 30.4492 49.802 33.124 48.8074 33.0515C47.7981 33.138 48.4327 30.2833 48.2668 29.8C46.6229 29.5984 44.8715 29.447 43.0184 29.3676C42.86 29.8649 43.48 32.5758 42.4778 32.5033C41.4832 32.5828 42.1032 29.807 41.9373 29.3243V29.3248C40.4272 29.2866 38.9161 29.3253 37.41 29.44C37.1868 29.9232 37.9581 34.8899 36.8695 34.7385C35.7737 34.9045 36.5451 29.995 36.3289 29.541C34.7791 29.707 33.2428 29.9765 31.7293 30.3486V32.8573C31.7293 33.1555 31.4874 33.3979 31.1887 33.3979C30.89 33.3979 30.6482 33.1555 30.6482 32.8573V30.6227C29.2522 30.9998 27.8759 31.4473 26.5248 31.9633V35.1639C26.5248 35.4626 26.2824 35.7045 25.9842 35.7045C25.6855 35.7045 25.4431 35.4626 25.4431 35.1639V32.3239C23.8641 32.9655 22.3576 33.6574 20.9159 34.3709V37.4278C20.9159 37.7265 20.674 37.9684 20.3753 37.9684C20.0766 37.9684 19.8347 37.7265 19.8347 37.4278V34.9477C18.292 35.7407 16.8865 36.5051 15.4444 37.2835V39.8642C15.4444 40.1629 15.2025 40.4047 14.9038 40.4047C14.6051 40.4047 14.3632 40.1629 14.3632 39.8642V37.8603C13.0875 38.5452 11.869 39.1722 10.6939 39.7129V44.658C9.07157 47.2462 9.72082 40.5779 9.61271 40.1886C8.3178 40.7588 6.95659 41.1636 5.56114 41.3924C5.40274 41.8827 6.00819 44.478 5.02057 44.4131C4.04754 44.478 4.63136 41.9693 4.48 41.4865H4.4795C3.05585 41.5685 1.64238 41.1979 0.442603 40.4265C-2.10242 64.5122 22.7904 35.7046 39.6092 37.6653C51.014 37.4994 60.1123 40.5919 64.2356 42.6397V34.4074C62.9804 33.7828 61.6931 33.2242 60.3791 32.7349V34.602C60.3791 34.9007 60.1368 35.1426 59.8381 35.1426C59.5399 35.1426 59.2975 34.9007 59.2975 34.602V32.3241C58.0218 31.8846 56.5871 31.4446 54.9719 31.0484L55.0362 33.1818Z" fill="#0A6835"/>
<defs>
<linearGradient id="paint0_linear_304_541" x1="32.482" y1="8.4585" x2="32.4119" y2="50.7546" gradientUnits="userSpaceOnUse">
<stop stop-color="#DC2F39"/>
<stop offset="0.459913" stop-color="#DC2F39" stop-opacity="0.77"/>
<stop offset="1" stop-color="#DC2F39" stop-opacity="0"/>
</linearGradient>
<linearGradient id="paint1_linear_304_541" x1="34.0839" y1="38.7451" x2="34.0839" y2="53" gradientUnits="userSpaceOnUse">
<stop stop-color="#DC2F39" stop-opacity="0.76"/>
<stop offset="0.563969" stop-color="#DC2F39" stop-opacity="0.603917"/>
<stop offset="1" stop-color="#DC2F39" stop-opacity="0.3"/>
</linearGradient>
</defs>
</svg>
