<svg width="19" height="19" viewBox="0 0 19 19" fill="none" xmlns="http://www.w3.org/2000/svg">
<path fill-rule="evenodd" clip-rule="evenodd" d="M14.9099 12.1549C16.0745 12.8021 17.2398 13.4494 18.4043 14.0966C18.9055 14.3749 19.1254 14.9655 18.9281 15.5042C17.9261 18.2415 14.9916 19.6863 12.2304 18.6786C6.57637 16.6148 2.38539 12.4237 0.321452 6.76962C-0.686358 4.00847 0.758567 1.07386 3.49587 0.0719184C4.0345 -0.12543 4.62508 0.0944497 4.90408 0.595724C5.55061 1.76032 6.19792 2.9256 6.84509 4.09013C7.14847 4.63647 7.07716 5.28496 6.66193 5.7515C6.11814 6.36342 5.57445 6.9752 5.03066 7.58648C6.19143 10.4131 8.58682 12.8086 11.4135 13.9693C12.0248 13.4255 12.6366 12.8818 13.2485 12.338C13.7157 11.9228 14.3636 11.8515 14.9098 12.1549L14.9099 12.1549Z" fill="#E0E0E0"/>
</svg>
