<svg width="26" height="16" viewBox="0 0 26 16" fill="none" xmlns="http://www.w3.org/2000/svg">
<path fill-rule="evenodd" clip-rule="evenodd" d="M17.451 8.05571L25.9474 1.09974C25.9825 1.2128 26.0002 1.32958 26 1.44689V14.6647C26.0002 14.782 25.9825 14.8988 25.9474 15.0119L17.451 8.05571ZM0.86934 15.8705C1.07186 15.9559 1.29373 16.0002 1.51841 16H24.4814C24.7442 16 25.0023 15.9396 25.2302 15.8244L16.5966 8.75545L15.0303 10.0374C14.493 10.4675 13.789 10.7002 13.0627 10.6878C12.3328 10.6858 11.6298 10.4448 11.0907 10.012L9.55755 8.7565L0.86934 15.8705ZM0.0866602 1.00084C0.0288259 1.14402 -0.000594439 1.29484 9.13095e-06 1.4467V14.6645C-0.000595419 14.8164 0.0288253 14.9672 0.0866602 15.1104L8.70326 8.05554L0.0866602 1.00084ZM24.4802 0.111576L1.5182 0.111753C1.29352 0.111576 1.07166 0.155879 0.869134 0.241296L9.95054 7.67769L9.95437 7.68071L11.884 9.2609C12.2091 9.52087 12.6323 9.66493 13.0716 9.66547C13.5006 9.67486 13.9175 9.53983 14.2369 9.28766L16.2013 7.68052L16.2041 7.67804L25.2303 0.286554C25.0024 0.171542 24.7442 0.111115 24.4814 0.111115L24.4802 0.111576Z" fill="#E0E0E0"/>
</svg>
