<svg width="26" height="18" viewBox="0 0 26 18" fill="none" xmlns="http://www.w3.org/2000/svg">
<path d="M25.6838 8.79131C25.4526 8.52056 19.9433 2.16115 13 2.16115C6.05672 2.16115 0.546952 8.5208 0.316145 8.79131L0 9.16115L0.316145 9.53099C0.547033 9.80173 6.05672 16.1611 13 16.1611C19.9433 16.1611 25.4525 9.8015 25.6838 9.53099L26 9.16115L25.6838 8.79131ZM13 15.052C7.46314 15.052 2.72457 10.506 1.44309 9.16129C2.72432 7.81636 7.46314 3.27056 13 3.27056C18.5369 3.27056 23.2754 7.81657 24.5569 9.16129C23.2757 10.5062 18.5369 15.052 13 15.052Z" fill="#E0E0E0"/>
<path d="M8.17664 9.16128C8.17664 11.9508 10.3407 14.2206 13.0002 14.2206C15.6597 14.2206 17.8237 11.9508 17.8237 9.16128C17.8237 6.37175 15.6597 4.10193 13.0002 4.10193C10.3407 4.10193 8.17664 6.37175 8.17664 9.16128ZM16.7667 9.16128C16.7667 11.3398 15.077 13.1119 13.0002 13.1119C10.9232 13.1119 9.23373 11.3398 9.23373 9.16128C9.23373 6.98277 10.9234 5.21103 13.0002 5.21103C15.0772 5.21103 16.7667 6.98272 16.7667 9.16128Z" fill="#E0E0E0"/>
<path d="M10.8846 6.43987C10.984 6.40986 11.0865 6.38889 11.1941 6.38889C11.814 6.38889 12.3172 6.91638 12.3172 7.5673C12.3172 8.21815 11.8143 8.7457 11.1941 8.7457C10.5736 8.7457 10.0706 8.21758 10.0706 7.5673C10.0706 7.52412 10.0786 7.4828 10.0828 7.44066C9.80934 7.95009 9.65137 8.5356 9.65137 9.16135C9.65137 11.1006 11.1504 12.6729 12.9992 12.6729C14.8481 12.6729 16.3471 11.1006 16.3471 9.16135C16.3471 7.22172 14.8481 5.64981 12.9992 5.64981C12.1978 5.64961 11.4616 5.94625 10.8846 6.43987Z" fill="#E0E0E0"/>
<line x1="3.32382" y1="0.780178" x2="23.1342" y2="17.619" stroke="#E0E0E0"/>
</svg>
