<svg width="91" height="143" viewBox="0 0 91 143" fill="none" xmlns="http://www.w3.org/2000/svg">
<path d="M90.5394 48.7727C87.8242 68.1237 73.9322 83.211 44.3427 98.7039L44.3882 114.364C44.4001 118.631 40.9508 122.101 36.6846 122.112H36.6607C32.404 122.112 28.9476 118.667 28.9356 114.407L28.877 94.0054C28.8686 91.0711 30.5238 88.3847 33.148 87.0721C67.6568 69.8183 73.789 56.9441 75.2362 46.6273C76.3357 38.7886 74.3822 31.728 69.5842 26.2115C63.7273 19.4756 54.0189 15.4538 43.616 15.4538C32.7985 15.4538 20.922 22.0508 14.0616 31.8681C11.6159 35.369 6.80113 36.2229 3.3015 33.776C-0.195682 31.3327 -1.05081 26.5155 1.39357 23.0184C11.163 9.03423 27.7368 0 43.6167 0C58.4286 0 72.4955 6.00769 81.2468 16.0718C89.0653 25.064 92.2798 36.3727 90.5398 48.7747L90.5394 48.7727ZM39.2928 128.727H34.2877C31.175 128.727 28.6526 131.251 28.6526 134.362V137.328C28.6526 140.44 31.1761 142.963 34.2877 142.963H39.2928C42.4043 142.963 44.928 140.439 44.928 137.328V134.362C44.928 131.251 42.4056 128.727 39.2928 128.727Z" fill="#DC2F39"/>
</svg>
