<svg width="1716" height="521" viewBox="0 0 1716 521" fill="none" xmlns="http://www.w3.org/2000/svg">
<path d="M0.908817 25.2737C-2.56981 12.5482 7.00864 0 20.201 0H1645.96C1656.21 0 1664.8 7.75081 1665.85 17.9479L1715.42 498.492C1716.74 511.285 1705.81 521.981 1693.05 520.39L1443.38 489.268C1388.55 482.435 1333.26 480.156 1278.06 482.456L1061 491.5L701.337 510.039C650.188 512.676 598.912 511.379 547.961 506.16L338.417 484.696C337.142 484.566 335.857 484.558 334.581 484.673L148.175 501.495C138.526 502.366 129.64 496.195 127.085 486.85L0.908817 25.2737Z" fill="#BEEBC2" fill-opacity="0.5"/>
</svg>
