<svg width="158" height="34" viewBox="0 0 158 34" fill="none" xmlns="http://www.w3.org/2000/svg">
<path d="M16.4509 3L19.8559 13.2669L29.9007 13.6406L22.0684 20.5469L24.6229 31L16.4509 24.8398L8.10786 31L10.8323 20.5469L3 13.6406L12.875 13.2669L16.4509 3Z" fill="#32794F" stroke="#32794F" stroke-width="1.71161" stroke-miterlimit="10"/>
<path d="M47.7777 3L51.1827 13.2669L61.2275 13.6406L53.3964 20.5469L56.1196 31L47.7777 24.8398L39.4346 31L42.1591 20.5469L34.3268 13.6406L44.3728 13.2669L47.7777 3Z" fill="#32794F" stroke="#32794F" stroke-width="1.71161" stroke-miterlimit="10"/>
<path d="M79.1053 3L82.5102 13.2669L92.555 13.6406L84.7239 20.5469L87.4483 31L79.1053 24.8398L70.7622 31L73.4866 20.5469L65.6555 13.6406L75.7003 13.2669L79.1053 3Z" fill="#32794F" stroke="#32794F" stroke-width="1.71161" stroke-miterlimit="10"/>
<path d="M110.432 3L113.837 13.2669L123.883 13.6406L116.051 20.5469L118.775 31L110.432 24.8398L102.09 31L104.813 20.5469L96.9823 13.6406L107.027 13.2669L110.432 3Z" fill="#32794F" stroke="#32794F" stroke-width="1.71161" stroke-miterlimit="10"/>
<path d="M141.759 3L145.335 13.2669L155.21 13.6406L147.377 20.5469L150.102 31L141.759 24.8398L133.587 31L136.141 20.5469L128.309 13.6406L138.354 13.2669L141.759 3Z" stroke="#32794F" stroke-width="1.71161" stroke-miterlimit="10"/>
</svg>
