<svg width="180" height="38" viewBox="0 0 180 38" fill="none" xmlns="http://www.w3.org/2000/svg">
<path d="M18.4349 3.53174L22.3306 15.2785L33.8233 15.7061L24.862 23.6079L27.7848 35.5678L18.4349 28.5196L8.88918 35.5678L12.0063 23.6079L3.04504 15.7061L14.3435 15.2785L18.4349 3.53174Z" fill="#32794F" stroke="#32794F" stroke-width="1.95832" stroke-miterlimit="10"/>
<path d="M54.2773 3.53174L58.173 15.2785L69.6657 15.7061L60.7058 23.6079L63.8216 35.5678L54.2773 28.5196L44.7316 35.5678L47.8487 23.6079L38.8875 15.7061L50.3815 15.2785L54.2773 3.53174Z" fill="#32794F" stroke="#32794F" stroke-width="1.95832" stroke-miterlimit="10"/>
<path d="M90.1204 3.53174L94.0162 15.2785L105.509 15.7061L96.5489 23.6079L99.6661 35.5678L90.1204 28.5196L80.5747 35.5678L83.6919 23.6079L74.7319 15.7061L86.2246 15.2785L90.1204 3.53174Z" fill="#32794F" stroke="#32794F" stroke-width="1.95832" stroke-miterlimit="10"/>
<path d="M125.963 3.53174L129.859 15.2785L141.353 15.7061L132.391 23.6079L135.508 35.5678L125.963 28.5196L116.418 35.5678L119.534 23.6079L110.574 15.7061L122.067 15.2785L125.963 3.53174Z" fill="#32794F" stroke="#32794F" stroke-width="1.95832" stroke-miterlimit="10"/>
<path d="M161.805 3.53174L165.896 15.2785L177.195 15.7061L168.234 23.6079L171.351 35.5678L161.805 28.5196L152.455 35.5678L155.378 23.6079L146.417 15.7061L157.909 15.2785L161.805 3.53174Z" stroke="#32794F" stroke-width="1.95832" stroke-miterlimit="10"/>
</svg>
